<?xml version="1.0" encoding="UTF-8" standalone="no"?>
<!DOCTYPE svg PUBLIC "-//W3C//DTD SVG 1.1//EN" "http://www.w3.org/Graphics/SVG/1.1/DTD/svg11.dtd">
<svg width="100%" height="100%" viewBox="0 0 1649 413" version="1.1" xmlns="http://www.w3.org/2000/svg" xmlns:xlink="http://www.w3.org/1999/xlink" xml:space="preserve" xmlns:serif="http://www.serif.com/" style="fill-rule:evenodd;clip-rule:evenodd;stroke-linecap:round;stroke-linejoin:round;stroke-miterlimit:1.5;">
    <g id="Icon" transform="matrix(1,0,0,1,-929.921,-1034.15)">
        <g transform="matrix(0.307248,0,0,0.366896,564.433,1031.99)">
            <path d="M2200.12,962.891C2200.12,962.891 2084.68,1042.08 1786.92,1040.61C1490.88,1039.14 1384.59,939.512 1384.59,939.512C1384.59,939.512 1364.33,803.244 1360.74,770.364C1359.64,760.277 1354.48,745.835 1364.32,735.858C1380.65,719.29 1440.66,667.969 1666.93,653.015C1907.06,637.145 2135.89,683.472 2135.89,683.472C2135.89,683.472 1889.81,660.274 1705.09,671.625C1476.82,685.652 1443.79,761.387 1438.41,778.204C1426.66,814.939 1493.03,889.738 1787.92,891.137C2108.15,892.656 2227.08,812.685 2227.08,812.685L2200.12,962.891Z" style="fill:rgb(0,171,241);stroke:white;stroke-opacity:0.270588;stroke-width:6.14px;"/>
        </g>
        <g transform="matrix(0.3448,0,0,0.361468,494.819,946.462)">
            <path d="M2200.26,958.976C2200.26,958.976 2086.35,1038.9 1788.67,1032.11C1489.04,1025.26 1399.81,942.785 1399.81,942.785C1399.81,942.785 1380.05,794.26 1375.25,758.2C1372.38,736.643 1375.09,730.076 1377.15,725.042C1378.07,722.789 1397.34,670.832 1666.93,653.015C1907.06,637.145 2135.89,683.472 2135.89,683.472C2135.89,683.472 1889.65,657.93 1705.09,671.625C1457.8,689.975 1447.46,744.015 1446.07,751.862C1443.06,768.792 1434.1,867.458 1784.66,869.332C2092.64,870.978 2226.18,797.201 2226.18,797.201L2200.26,958.976Z" style="fill:rgb(0,171,241);stroke:white;stroke-opacity:0.270588;stroke-width:5.88px;"/>
        </g>
        <g transform="matrix(0.381988,0,0,0.400454,428.595,809.999)">
            <path d="M2199.3,965.464C2199.3,965.464 2095.27,1033.1 1797.51,1030.88C1497.88,1028.65 1402.02,948.699 1402.02,948.699C1402.02,948.699 1380.1,798.843 1375.4,763.154C1372.39,740.285 1382.19,726.906 1387.8,722.636C1402.69,711.308 1442.09,674.586 1666.93,653.015C1906.49,630.032 2135.89,683.472 2135.89,683.472C2135.89,683.472 1889.65,657.93 1705.09,671.625C1457.8,689.975 1447.84,745.653 1446.07,751.862C1440.57,771.181 1478.4,866.592 1795.16,868.892C2044.73,870.705 2222.03,810.425 2222.03,810.425L2199.3,965.464Z" style="fill:rgb(0,171,241);stroke:white;stroke-opacity:0.270588;stroke-width:5.31px;stroke-linejoin:miter;stroke-miterlimit:1;"/>
        </g>
    </g>
    <g id="Text">
        <g transform="matrix(1,0,0,1,20,0)">
            <path d="M518.68,165.266L513.014,165.266C513.014,165.266 486.539,165.513 472.849,165.513C458.526,165.513 448.193,167.738 441.85,172.188C435.506,176.639 432.335,182.598 432.335,190.067C432.335,196.001 433.997,200.758 437.322,204.339C440.647,207.92 446.3,210.58 454.28,212.319L478.22,216.923C493.465,220.095 504.565,225.338 511.522,232.653C518.479,239.968 521.958,250.122 521.958,263.116C521.958,273.551 519.349,282.554 514.131,290.125C508.913,297.696 501.214,303.502 491.035,307.543C480.855,311.585 468.552,313.605 454.127,313.605C436.632,313.605 420.518,311.303 405.785,306.699L405.785,281.838C421.746,286.647 437.757,289.051 453.82,289.051C466.915,289.051 476.507,286.954 482.594,282.759C488.682,278.564 491.725,272.477 491.725,264.497C491.725,257.949 490.012,252.961 486.584,249.534C483.157,246.107 477.351,243.523 469.166,241.784L445.226,237.027C430.186,234.06 419.265,228.791 412.461,221.22C405.658,213.649 402.256,203.521 402.256,190.834C402.256,180.91 404.814,172.188 409.929,164.669C415.044,157.149 422.82,151.317 433.256,147.174C443.691,143.03 456.711,141.654 472.159,141.654C486.667,141.654 512.939,141.685 513.014,141.685L513.014,141.685L518.68,141.685L518.68,165.266ZM529.943,141.685L577.307,141.685L577.307,250.889C577.307,263.078 579.605,272.37 584.2,278.764C588.796,285.158 595.49,288.355 604.283,288.356L616.504,288.356L616.504,311.735L601.585,311.735C585.1,311.735 572.336,306.415 563.294,295.774C554.252,285.134 549.731,270.172 549.731,250.889L549.731,165.266L529.943,165.266L529.943,141.685ZM572.811,112.262L551.23,112.262C548.232,112.262 546.734,110.763 546.734,107.766L546.734,81.839C546.734,78.841 548.232,77.343 551.23,77.343L572.811,77.343C575.808,77.343 577.307,78.841 577.307,81.839L577.307,107.766C577.307,110.763 575.808,112.261 572.811,112.262Z" style="fill:rgb(0,171,241);fill-rule:nonzero;"/>
        </g>
        <g transform="matrix(5.56406,0,0,5.56406,-5742.92,-9686.63)">
            <path d="M1159.44,1809.43C1157.94,1809.43 1156.37,1809.32 1154.76,1809.1C1153.14,1808.88 1151.64,1808.55 1150.26,1808.13L1150.26,1803.44C1153.35,1804.38 1156.28,1804.85 1159.06,1804.85C1161.19,1804.85 1162.93,1804.56 1164.27,1803.99C1165.61,1803.42 1166.61,1802.5 1167.26,1801.24C1167.92,1799.97 1168.24,1798.27 1168.24,1796.16L1168.24,1793.54L1167.94,1793.54C1167,1794.64 1165.84,1795.51 1164.46,1796.13C1163.08,1796.76 1161.53,1797.07 1159.8,1797.07C1157.63,1797.07 1155.68,1796.56 1153.95,1795.54C1152.23,1794.52 1150.85,1792.91 1149.82,1790.71C1148.79,1788.52 1148.27,1785.73 1148.27,1782.34C1148.27,1777.03 1149.59,1773.02 1152.23,1770.33C1154.87,1767.64 1158.8,1766.28 1164.02,1766.26C1165.71,1766.26 1167.44,1766.39 1169.19,1766.65C1170.95,1766.9 1172.55,1767.26 1173.98,1767.72L1173.98,1795.19C1173.98,1798.54 1173.45,1801.26 1172.38,1803.36C1171.31,1805.45 1169.71,1806.99 1167.58,1807.96C1165.45,1808.94 1162.74,1809.43 1159.44,1809.43ZM1161.73,1792.27C1162.98,1792.27 1164.18,1792.02 1165.33,1791.53C1166.48,1791.03 1167.45,1790.29 1168.24,1789.32L1168.24,1771.34C1166.73,1770.97 1165.17,1770.79 1163.55,1770.79C1160.41,1770.79 1158.05,1771.66 1156.48,1773.42C1154.91,1775.17 1154.12,1777.97 1154.12,1781.82C1154.12,1785.64 1154.78,1788.34 1156.11,1789.91C1157.43,1791.49 1159.31,1792.27 1161.73,1792.27Z" style="fill:rgb(0,171,241);fill-rule:nonzero;"/>
        </g>
        <g transform="matrix(5.56406,0,0,5.56406,-5760.92,-9686.63)">
            <path d="M1212.59,1766.26C1215.46,1766.26 1217.73,1767.14 1219.39,1768.9C1221.06,1770.65 1221.89,1773.43 1221.89,1777.24L1221.89,1796.74L1216.15,1796.74L1216.15,1777.52C1216.15,1775.31 1215.7,1773.72 1214.8,1772.76C1213.9,1771.79 1212.64,1771.31 1211.02,1771.31C1209.86,1771.31 1208.71,1771.57 1207.56,1772.1C1206.41,1772.62 1205.42,1773.44 1204.59,1774.56C1204.69,1775.43 1204.73,1776.26 1204.73,1777.07L1204.73,1796.74L1199.11,1796.74L1199.11,1777.52C1199.11,1775.29 1198.67,1773.7 1197.81,1772.74C1196.94,1771.79 1195.71,1771.31 1194.11,1771.31C1192.88,1771.31 1191.67,1771.61 1190.49,1772.2C1189.3,1772.8 1188.3,1773.71 1187.49,1774.92L1187.49,1796.74L1181.76,1796.74L1181.76,1766.73L1186.56,1766.73L1186.97,1770.04L1187.27,1770.04C1188.39,1768.81 1189.69,1767.87 1191.15,1767.23C1192.61,1766.58 1194.19,1766.26 1195.88,1766.26C1197.59,1766.26 1199.09,1766.6 1200.37,1767.27C1201.66,1767.94 1202.67,1768.99 1203.41,1770.43C1204.71,1768.99 1206.16,1767.94 1207.74,1767.27C1209.32,1766.6 1210.94,1766.26 1212.59,1766.26Z" style="fill:rgb(0,171,241);fill-rule:nonzero;"/>
        </g>
        <g transform="matrix(5.56406,0,0,5.56406,-5768.92,-9686.63)">
            <path d="M1238.8,1766.26C1241.61,1766.26 1243.9,1766.62 1245.68,1767.34C1247.45,1768.05 1248.78,1769.24 1249.66,1770.89C1250.55,1772.55 1250.99,1774.79 1250.99,1777.63L1250.99,1796.74L1246.21,1796.74L1245.8,1793.48L1245.47,1793.48C1244.53,1794.7 1243.33,1795.63 1241.86,1796.27C1240.39,1796.91 1238.78,1797.24 1237.03,1797.24C1235.12,1797.24 1233.47,1796.9 1232.08,1796.23C1230.69,1795.56 1229.62,1794.59 1228.88,1793.33C1228.13,1792.07 1227.76,1790.6 1227.76,1788.91C1227.76,1786.18 1228.67,1784.08 1230.49,1782.59C1232.31,1781.1 1235.19,1780.19 1239.13,1779.86L1245.36,1779.23L1245.36,1777.32C1245.36,1775.65 1245.1,1774.34 1244.57,1773.4C1244.05,1772.47 1243.25,1771.8 1242.17,1771.41C1241.1,1771.01 1239.68,1770.81 1237.91,1770.81C1236.68,1770.81 1235.35,1770.92 1233.93,1771.13C1232.5,1771.34 1231.13,1771.67 1229.8,1772.11L1229.8,1767.59C1231.09,1767.16 1232.54,1766.84 1234.16,1766.61C1235.78,1766.38 1237.32,1766.26 1238.8,1766.26ZM1238.68,1793.02C1239.92,1793.02 1241.11,1792.76 1242.27,1792.26C1243.43,1791.75 1244.46,1790.97 1245.36,1789.9L1245.36,1782.81L1239.6,1783.39C1237.46,1783.61 1235.91,1784.13 1234.95,1784.93C1233.98,1785.74 1233.5,1786.88 1233.5,1788.35C1233.5,1789.88 1233.94,1791.04 1234.81,1791.83C1235.68,1792.62 1236.98,1793.02 1238.68,1793.02Z" style="fill:rgb(0,171,241);fill-rule:nonzero;"/>
        </g>
        <g transform="matrix(5.56406,0,0,5.56406,-5763.92,-9686.63)">
            <path d="M1269.08,1797.1C1265.7,1797.1 1262.31,1796.89 1258.93,1796.49L1258.93,1756.66C1260.69,1756.3 1262.57,1756.01 1264.54,1755.81C1266.52,1755.61 1268.43,1755.51 1270.27,1755.51C1277.25,1755.51 1282.5,1757.22 1286.01,1760.63C1289.53,1764.06 1291.28,1769.29 1291.28,1776.33C1291.28,1783.48 1289.45,1788.73 1285.78,1792.08C1282.11,1795.42 1276.55,1797.1 1269.08,1797.1ZM1270.4,1792.22C1273.77,1792.22 1276.54,1791.67 1278.72,1790.59C1280.9,1789.5 1282.53,1787.79 1283.63,1785.46C1284.72,1783.12 1285.27,1780.07 1285.27,1776.3C1285.27,1770.75 1284.07,1766.7 1281.66,1764.16C1279.25,1761.63 1275.56,1760.36 1270.6,1760.36C1268.83,1760.36 1266.89,1760.53 1264.78,1760.86L1264.78,1791.91C1266.39,1792.11 1268.27,1792.22 1270.4,1792.22Z" style="fill:rgb(0,171,241);fill-rule:nonzero;"/>
        </g>
        <g transform="matrix(5.56406,0,0,5.56406,-5773.92,-9686.63)">
            <path d="M1319.33,1775.67C1322,1776.18 1324.03,1777.29 1325.41,1778.98C1326.8,1780.67 1327.5,1782.86 1327.5,1785.54C1327.5,1788.1 1326.87,1790.23 1325.62,1791.94C1324.37,1793.65 1322.38,1794.94 1319.64,1795.82C1316.9,1796.69 1313.31,1797.13 1308.88,1797.13C1305.5,1797.13 1301.98,1796.89 1298.34,1796.44L1298.34,1756.66C1302.2,1755.87 1306.14,1755.48 1310.15,1755.48C1315.76,1755.48 1319.86,1756.38 1322.45,1758.18C1325.04,1759.98 1326.34,1762.75 1326.34,1766.48C1326.34,1768.76 1325.75,1770.72 1324.59,1772.34C1323.42,1773.97 1321.67,1775.08 1319.33,1775.67ZM1310.78,1759.94C1308.3,1759.94 1306.06,1760.13 1304.05,1760.5L1304.05,1773.54L1311.44,1773.54C1314.75,1773.54 1317.14,1772.99 1318.6,1771.89C1320.06,1770.79 1320.79,1769.08 1320.79,1766.76C1320.79,1765.12 1320.46,1763.81 1319.8,1762.83C1319.14,1761.84 1318.08,1761.12 1316.62,1760.65C1315.15,1760.18 1313.21,1759.94 1310.78,1759.94ZM1310.23,1792.66C1313.17,1792.66 1315.5,1792.39 1317.22,1791.86C1318.94,1791.32 1320.17,1790.52 1320.9,1789.46C1321.64,1788.39 1322.01,1787.01 1322.01,1785.32C1322.01,1782.84 1321.23,1781.02 1319.66,1779.86C1318.1,1778.7 1315.63,1778.12 1312.24,1778.12L1304.05,1778.12L1304.05,1792.3C1305.84,1792.54 1307.89,1792.66 1310.23,1792.66Z" style="fill:rgb(0,171,241);fill-rule:nonzero;"/>
        </g>
    </g>
</svg>
